<svg aria-hidden="true" style="position: absolute; width: 0; height: 0; overflow: hidden;" version="1.1" xmlns="http://www.w3.org/2000/svg" xmlns:xlink="http://www.w3.org/1999/xlink">
<defs>
<symbol id="icon-facebook" viewBox="0 0 32 32">
<title>facebook</title>
<path d="M12 10.667h-4v5.333h4v16h6.667v-16h4.856l0.477-5.333h-5.333v-2.223c0-1.273 0.256-1.777 1.487-1.777h3.847v-6.667h-5.077c-4.795 0-6.923 2.111-6.923 6.153v4.513z"></path>
</symbol>
<symbol id="icon-instagram" viewBox="0 0 32 32">
<title>instagram</title>
<path d="M16 2.884c4.272 0 4.779 0.016 6.467 0.093 4.336 0.197 6.361 2.255 6.559 6.559 0.077 1.687 0.092 2.193 0.092 6.465 0 4.273-0.016 4.779-0.092 6.465-0.199 4.3-2.219 6.361-6.559 6.559-1.688 0.077-2.192 0.093-6.467 0.093-4.272 0-4.779-0.016-6.465-0.093-4.347-0.199-6.361-2.265-6.559-6.56-0.077-1.687-0.093-2.192-0.093-6.465 0-4.272 0.017-4.777 0.093-6.465 0.199-4.303 2.219-6.361 6.559-6.559 1.688-0.076 2.193-0.092 6.465-0.092zM16 0c-4.345 0-4.889 0.019-6.596 0.096-5.811 0.267-9.040 3.491-9.307 9.307-0.079 1.708-0.097 2.252-0.097 6.597s0.019 4.891 0.096 6.597c0.267 5.811 3.491 9.040 9.307 9.307 1.708 0.077 2.252 0.096 6.597 0.096s4.891-0.019 6.597-0.096c5.805-0.267 9.043-3.491 9.305-9.307 0.079-1.707 0.097-2.252 0.097-6.597s-0.019-4.889-0.096-6.596c-0.261-5.805-3.489-9.040-9.305-9.307-1.708-0.079-2.253-0.097-6.599-0.097zM16 7.784c-4.537 0-8.216 3.679-8.216 8.216s3.679 8.217 8.216 8.217 8.216-3.679 8.216-8.217c0-4.537-3.679-8.216-8.216-8.216zM16 21.333c-2.945 0-5.333-2.387-5.333-5.333 0-2.945 2.388-5.333 5.333-5.333s5.333 2.388 5.333 5.333c0 2.947-2.388 5.333-5.333 5.333zM24.541 5.54c-1.061 0-1.921 0.86-1.921 1.92s0.86 1.92 1.921 1.92c1.060 0 1.919-0.86 1.919-1.92s-0.859-1.92-1.919-1.92z"></path>
</symbol>
<symbol id="icon-youtube" viewBox="0 0 32 32">
<title>youtube</title>
<path d="M26.153 4.245c-4.805-0.328-15.508-0.327-20.307 0-5.196 0.355-5.808 3.493-5.847 11.755 0.039 8.247 0.645 11.399 5.847 11.755 4.8 0.327 15.501 0.328 20.307 0 5.196-0.355 5.808-3.493 5.847-11.755-0.039-8.247-0.645-11.399-5.847-11.755zM12 21.333v-10.667l10.667 5.324-10.667 5.343z"></path>
</symbol>
<symbol id="icon-sea-waves" viewBox="0 0 20 20">
<title>sea-waves</title>
<path d="M17.281 5.786c-0.72 0-1.087-0.336-1.411-0.632-0.292-0.268-0.523-0.479-1.016-0.479s-0.724 0.211-1.016 0.479c-0.324 0.296-0.69 0.632-1.411 0.632s-1.087-0.336-1.411-0.632c-0.292-0.268-0.523-0.479-1.016-0.479s-0.724 0.211-1.016 0.479c-0.324 0.296-0.69 0.632-1.411 0.632s-1.087-0.336-1.41-0.632c-0.292-0.268-0.523-0.479-1.016-0.479s-0.724 0.211-1.016 0.479c-0.324 0.296-0.69 0.632-1.411 0.632s-1.087-0.336-1.411-0.632c-0.292-0.268-0.523-0.479-1.016-0.479-0.161 0-0.292-0.131-0.292-0.292s0.131-0.292 0.292-0.292c0.72 0 1.087 0.336 1.411 0.632 0.292 0.268 0.523 0.479 1.016 0.479s0.724-0.211 1.016-0.479c0.324-0.296 0.69-0.632 1.411-0.632s1.087 0.336 1.411 0.632c0.292 0.268 0.523 0.479 1.016 0.479s0.724-0.211 1.016-0.479c0.324-0.296 0.69-0.632 1.411-0.632s1.087 0.336 1.411 0.632c0.292 0.267 0.523 0.479 1.016 0.479s0.724-0.211 1.016-0.479c0.324-0.296 0.69-0.632 1.411-0.632s1.087 0.336 1.411 0.632c0.292 0.267 0.523 0.479 1.016 0.479s0.724-0.211 1.017-0.479c0.324-0.296 0.691-0.632 1.411-0.632 0.161 0 0.292 0.131 0.292 0.292s-0.131 0.292-0.292 0.292c-0.493 0-0.724 0.211-1.017 0.479-0.324 0.296-0.69 0.632-1.411 0.632z"></path>
<path d="M17.281 8.317c-0.72 0-1.087-0.336-1.411-0.632-0.292-0.268-0.523-0.479-1.016-0.479s-0.724 0.211-1.016 0.479c-0.324 0.296-0.69 0.632-1.411 0.632s-1.087-0.336-1.411-0.632c-0.292-0.268-0.523-0.479-1.016-0.479s-0.724 0.211-1.016 0.479c-0.324 0.296-0.69 0.632-1.411 0.632s-1.087-0.336-1.41-0.632c-0.292-0.268-0.523-0.479-1.016-0.479s-0.724 0.211-1.016 0.479c-0.324 0.296-0.69 0.632-1.411 0.632s-1.087-0.336-1.411-0.632c-0.292-0.268-0.523-0.479-1.016-0.479-0.161 0-0.292-0.131-0.292-0.292s0.131-0.292 0.292-0.292c0.72 0 1.087 0.336 1.411 0.632 0.292 0.268 0.523 0.479 1.016 0.479s0.724-0.211 1.016-0.479c0.324-0.296 0.69-0.632 1.411-0.632s1.087 0.336 1.411 0.632c0.292 0.268 0.523 0.479 1.016 0.479s0.724-0.211 1.016-0.479c0.324-0.296 0.69-0.632 1.411-0.632s1.087 0.336 1.411 0.632c0.292 0.267 0.523 0.479 1.016 0.479s0.724-0.211 1.016-0.479c0.324-0.296 0.69-0.632 1.411-0.632s1.087 0.336 1.411 0.632c0.292 0.267 0.523 0.479 1.016 0.479s0.724-0.211 1.017-0.479c0.324-0.296 0.691-0.632 1.411-0.632 0.161 0 0.292 0.131 0.292 0.292s-0.131 0.292-0.292 0.292c-0.493 0-0.724 0.211-1.017 0.479-0.324 0.296-0.69 0.632-1.411 0.632z"></path>
<path d="M17.281 10.847c-0.72 0-1.087-0.336-1.411-0.632-0.292-0.268-0.523-0.479-1.016-0.479s-0.724 0.211-1.016 0.479c-0.324 0.296-0.69 0.632-1.411 0.632s-1.087-0.336-1.411-0.632c-0.292-0.267-0.523-0.479-1.016-0.479s-0.724 0.211-1.016 0.479c-0.324 0.296-0.69 0.632-1.411 0.632s-1.087-0.336-1.41-0.632c-0.292-0.267-0.523-0.479-1.016-0.479s-0.724 0.211-1.016 0.479c-0.324 0.296-0.69 0.632-1.411 0.632s-1.087-0.336-1.411-0.632c-0.292-0.267-0.523-0.479-1.016-0.479-0.161 0-0.292-0.131-0.292-0.292s0.131-0.292 0.292-0.292c0.72 0 1.087 0.336 1.411 0.632 0.292 0.267 0.523 0.479 1.016 0.479s0.724-0.211 1.016-0.479c0.324-0.296 0.69-0.632 1.411-0.632s1.087 0.336 1.411 0.632c0.292 0.267 0.523 0.479 1.016 0.479s0.724-0.211 1.016-0.479c0.324-0.296 0.69-0.632 1.411-0.632s1.087 0.336 1.411 0.632c0.292 0.268 0.523 0.479 1.016 0.479s0.724-0.211 1.016-0.479c0.324-0.296 0.69-0.632 1.411-0.632s1.087 0.336 1.411 0.632c0.292 0.268 0.523 0.479 1.016 0.479s0.724-0.211 1.017-0.479c0.324-0.296 0.691-0.632 1.411-0.632 0.161 0 0.292 0.131 0.292 0.292s-0.131 0.292-0.292 0.292c-0.493 0-0.724 0.211-1.017 0.479-0.324 0.296-0.69 0.632-1.411 0.632z"></path>
<path d="M17.281 13.378c-0.72 0-1.087-0.336-1.411-0.632-0.292-0.268-0.523-0.479-1.016-0.479s-0.724 0.211-1.016 0.479c-0.324 0.296-0.69 0.632-1.411 0.632s-1.087-0.336-1.411-0.632c-0.292-0.267-0.523-0.479-1.016-0.479s-0.724 0.211-1.016 0.479c-0.324 0.296-0.69 0.632-1.411 0.632s-1.087-0.336-1.41-0.632c-0.292-0.267-0.523-0.479-1.016-0.479s-0.724 0.211-1.016 0.479c-0.324 0.296-0.69 0.632-1.411 0.632s-1.087-0.336-1.411-0.632c-0.292-0.267-0.523-0.479-1.016-0.479-0.161 0-0.292-0.131-0.292-0.292s0.131-0.292 0.292-0.292c0.72 0 1.087 0.336 1.411 0.632 0.292 0.268 0.523 0.479 1.016 0.479s0.724-0.211 1.016-0.479c0.324-0.296 0.69-0.632 1.411-0.632s1.087 0.336 1.411 0.632c0.292 0.267 0.523 0.479 1.016 0.479s0.724-0.211 1.016-0.479c0.324-0.296 0.69-0.632 1.411-0.632s1.087 0.336 1.411 0.632c0.292 0.268 0.523 0.479 1.016 0.479s0.724-0.211 1.016-0.479c0.324-0.296 0.69-0.632 1.411-0.632s1.087 0.336 1.411 0.632c0.292 0.268 0.523 0.479 1.016 0.479s0.724-0.211 1.017-0.479c0.324-0.296 0.691-0.632 1.411-0.632 0.161 0 0.292 0.131 0.292 0.292s-0.131 0.292-0.292 0.292c-0.493 0-0.724 0.211-1.017 0.479-0.324 0.296-0.69 0.632-1.411 0.632z"></path>
<path d="M17.281 15.908c-0.72 0-1.087-0.336-1.411-0.632-0.292-0.268-0.523-0.479-1.016-0.479s-0.724 0.211-1.016 0.479c-0.324 0.296-0.69 0.632-1.411 0.632s-1.087-0.336-1.411-0.632c-0.292-0.267-0.523-0.479-1.016-0.479s-0.724 0.211-1.016 0.479c-0.324 0.296-0.69 0.632-1.411 0.632s-1.087-0.336-1.41-0.632c-0.292-0.267-0.523-0.479-1.016-0.479s-0.724 0.211-1.016 0.479c-0.324 0.296-0.69 0.632-1.411 0.632s-1.087-0.336-1.411-0.632c-0.292-0.267-0.523-0.479-1.016-0.479-0.161 0-0.292-0.131-0.292-0.292s0.131-0.292 0.292-0.292c0.72 0 1.087 0.336 1.411 0.632 0.292 0.268 0.523 0.479 1.016 0.479s0.724-0.211 1.016-0.479c0.324-0.296 0.69-0.632 1.411-0.632s1.087 0.336 1.411 0.632c0.292 0.267 0.523 0.479 1.016 0.479s0.724-0.211 1.016-0.479c0.324-0.296 0.69-0.632 1.411-0.632s1.087 0.336 1.411 0.632c0.292 0.268 0.523 0.479 1.016 0.479s0.724-0.211 1.016-0.479c0.324-0.296 0.69-0.632 1.411-0.632s1.087 0.336 1.411 0.632c0.292 0.268 0.523 0.479 1.016 0.479s0.724-0.211 1.017-0.479c0.324-0.296 0.691-0.632 1.411-0.632 0.161 0 0.292 0.131 0.292 0.292s-0.131 0.292-0.292 0.292c-0.493 0-0.724 0.211-1.017 0.479-0.324 0.296-0.69 0.632-1.411 0.632z"></path>
</symbol>
<symbol id="icon-book" viewBox="0 0 20 20">
<title>book</title>
<path d="M14.5 18h-10c-0.276 0-0.5-0.224-0.5-0.5s0.224-0.5 0.5-0.5h10c0.276 0 0.5 0.224 0.5 0.5s-0.224 0.5-0.5 0.5z"></path>
<path d="M16.5 3c-0.276 0-0.5 0.224-0.5 0.5v15c0 0.276-0.224 0.5-0.5 0.5h-11c-0.827 0-1.5-0.673-1.5-1.5s0.673-1.5 1.5-1.5h9c0.827 0 1.5-0.673 1.5-1.5v-12c0-0.827-0.673-1.5-1.5-1.5h-10c-0.827 0-1.5 0.673-1.5 1.5v15c0 1.378 1.122 2.5 2.5 2.5h11c0.827 0 1.5-0.673 1.5-1.5v-15c0-0.276-0.224-0.5-0.5-0.5zM3.5 2h10c0.276 0 0.5 0.224 0.5 0.5v12c0 0.276-0.224 0.5-0.5 0.5h-9c-0.562 0-1.082 0.187-1.5 0.501v-13.001c0-0.276 0.224-0.5 0.5-0.5z"></path>
</symbol>
<symbol id="icon-calendar" viewBox="0 0 20 20">
<title>calendar</title>
<path d="M18.5 2h-2.5v-0.5c0-0.276-0.224-0.5-0.5-0.5s-0.5 0.224-0.5 0.5v0.5h-10v-0.5c0-0.276-0.224-0.5-0.5-0.5s-0.5 0.224-0.5 0.5v0.5h-2.5c-0.827 0-1.5 0.673-1.5 1.5v14c0 0.827 0.673 1.5 1.5 1.5h17c0.827 0 1.5-0.673 1.5-1.5v-14c0-0.827-0.673-1.5-1.5-1.5zM1.5 3h2.5v1.5c0 0.276 0.224 0.5 0.5 0.5s0.5-0.224 0.5-0.5v-1.5h10v1.5c0 0.276 0.224 0.5 0.5 0.5s0.5-0.224 0.5-0.5v-1.5h2.5c0.276 0 0.5 0.224 0.5 0.5v2.5h-18v-2.5c0-0.276 0.224-0.5 0.5-0.5zM18.5 18h-17c-0.276 0-0.5-0.224-0.5-0.5v-10.5h18v10.5c0 0.276-0.224 0.5-0.5 0.5z"></path>
<path d="M7.5 10h-1c-0.276 0-0.5-0.224-0.5-0.5s0.224-0.5 0.5-0.5h1c0.276 0 0.5 0.224 0.5 0.5s-0.224 0.5-0.5 0.5z"></path>
<path d="M10.5 10h-1c-0.276 0-0.5-0.224-0.5-0.5s0.224-0.5 0.5-0.5h1c0.276 0 0.5 0.224 0.5 0.5s-0.224 0.5-0.5 0.5z"></path>
<path d="M13.5 10h-1c-0.276 0-0.5-0.224-0.5-0.5s0.224-0.5 0.5-0.5h1c0.276 0 0.5 0.224 0.5 0.5s-0.224 0.5-0.5 0.5z"></path>
<path d="M16.5 10h-1c-0.276 0-0.5-0.224-0.5-0.5s0.224-0.5 0.5-0.5h1c0.276 0 0.5 0.224 0.5 0.5s-0.224 0.5-0.5 0.5z"></path>
<path d="M4.5 12h-1c-0.276 0-0.5-0.224-0.5-0.5s0.224-0.5 0.5-0.5h1c0.276 0 0.5 0.224 0.5 0.5s-0.224 0.5-0.5 0.5z"></path>
<path d="M7.5 12h-1c-0.276 0-0.5-0.224-0.5-0.5s0.224-0.5 0.5-0.5h1c0.276 0 0.5 0.224 0.5 0.5s-0.224 0.5-0.5 0.5z"></path>
<path d="M10.5 12h-1c-0.276 0-0.5-0.224-0.5-0.5s0.224-0.5 0.5-0.5h1c0.276 0 0.5 0.224 0.5 0.5s-0.224 0.5-0.5 0.5z"></path>
<path d="M13.5 12h-1c-0.276 0-0.5-0.224-0.5-0.5s0.224-0.5 0.5-0.5h1c0.276 0 0.5 0.224 0.5 0.5s-0.224 0.5-0.5 0.5z"></path>
<path d="M16.5 12h-1c-0.276 0-0.5-0.224-0.5-0.5s0.224-0.5 0.5-0.5h1c0.276 0 0.5 0.224 0.5 0.5s-0.224 0.5-0.5 0.5z"></path>
<path d="M4.5 14h-1c-0.276 0-0.5-0.224-0.5-0.5s0.224-0.5 0.5-0.5h1c0.276 0 0.5 0.224 0.5 0.5s-0.224 0.5-0.5 0.5z"></path>
<path d="M7.5 14h-1c-0.276 0-0.5-0.224-0.5-0.5s0.224-0.5 0.5-0.5h1c0.276 0 0.5 0.224 0.5 0.5s-0.224 0.5-0.5 0.5z"></path>
<path d="M10.5 14h-1c-0.276 0-0.5-0.224-0.5-0.5s0.224-0.5 0.5-0.5h1c0.276 0 0.5 0.224 0.5 0.5s-0.224 0.5-0.5 0.5z"></path>
<path d="M13.5 14h-1c-0.276 0-0.5-0.224-0.5-0.5s0.224-0.5 0.5-0.5h1c0.276 0 0.5 0.224 0.5 0.5s-0.224 0.5-0.5 0.5z"></path>
<path d="M16.5 14h-1c-0.276 0-0.5-0.224-0.5-0.5s0.224-0.5 0.5-0.5h1c0.276 0 0.5 0.224 0.5 0.5s-0.224 0.5-0.5 0.5z"></path>
<path d="M4.5 16h-1c-0.276 0-0.5-0.224-0.5-0.5s0.224-0.5 0.5-0.5h1c0.276 0 0.5 0.224 0.5 0.5s-0.224 0.5-0.5 0.5z"></path>
<path d="M7.5 16h-1c-0.276 0-0.5-0.224-0.5-0.5s0.224-0.5 0.5-0.5h1c0.276 0 0.5 0.224 0.5 0.5s-0.224 0.5-0.5 0.5z"></path>
<path d="M10.5 16h-1c-0.276 0-0.5-0.224-0.5-0.5s0.224-0.5 0.5-0.5h1c0.276 0 0.5 0.224 0.5 0.5s-0.224 0.5-0.5 0.5z"></path>
<path d="M13.5 16h-1c-0.276 0-0.5-0.224-0.5-0.5s0.224-0.5 0.5-0.5h1c0.276 0 0.5 0.224 0.5 0.5s-0.224 0.5-0.5 0.5z"></path>
<path d="M16.5 16h-1c-0.276 0-0.5-0.224-0.5-0.5s0.224-0.5 0.5-0.5h1c0.276 0 0.5 0.224 0.5 0.5s-0.224 0.5-0.5 0.5z"></path>
</symbol>
<symbol id="icon-arrow-down" viewBox="0 0 20 20">
<title>arrow-down</title>
<path d="M0 6c0-0.128 0.049-0.256 0.146-0.354 0.195-0.195 0.512-0.195 0.707 0l8.646 8.646 8.646-8.646c0.195-0.195 0.512-0.195 0.707 0s0.195 0.512 0 0.707l-9 9c-0.195 0.195-0.512 0.195-0.707 0l-9-9c-0.098-0.098-0.146-0.226-0.146-0.354z"></path>
</symbol>
<symbol id="icon-arrow-up" viewBox="0 0 20 20">
<title>arrow-up</title>
<path d="M0 15c0 0.128 0.049 0.256 0.146 0.354 0.195 0.195 0.512 0.195 0.707 0l8.646-8.646 8.646 8.646c0.195 0.195 0.512 0.195 0.707 0s0.195-0.512 0-0.707l-9-9c-0.195-0.195-0.512-0.195-0.707 0l-9 9c-0.098 0.098-0.146 0.226-0.146 0.354z"></path>
</symbol>
<symbol id="icon-mail" viewBox="0 0 20 20">
<title>mail</title>
<path d="M17.5 6h-16c-0.827 0-1.5 0.673-1.5 1.5v9c0 0.827 0.673 1.5 1.5 1.5h16c0.827 0 1.5-0.673 1.5-1.5v-9c0-0.827-0.673-1.5-1.5-1.5zM17.5 7c0.030 0 0.058 0.003 0.087 0.008l-7.532 5.021c-0.29 0.193-0.819 0.193-1.109 0l-7.532-5.021c0.028-0.005 0.057-0.008 0.087-0.008h16zM17.5 17h-16c-0.276 0-0.5-0.224-0.5-0.5v-8.566l7.391 4.927c0.311 0.207 0.71 0.311 1.109 0.311s0.798-0.104 1.109-0.311l7.391-4.927v8.566c0 0.276-0.224 0.5-0.5 0.5z"></path>
</symbol>
<symbol id="icon-news" viewBox="0 0 20 20">
<title>news</title>
<path d="M17.854 5.646l-4.5-4.5c-0.094-0.094-0.221-0.146-0.354-0.146h-9.5c-0.827 0-1.5 0.673-1.5 1.5v16c0 0.827 0.673 1.5 1.5 1.5h13c0.827 0 1.5-0.673 1.5-1.5v-12.5c0-0.133-0.053-0.26-0.146-0.354zM16.793 6h-3.293c-0.276 0-0.5-0.224-0.5-0.5v-3.293l3.793 3.793zM17 18.5c0 0.276-0.224 0.5-0.5 0.5h-13c-0.276 0-0.5-0.224-0.5-0.5v-16c0-0.276 0.224-0.5 0.5-0.5h8.5v3.5c0 0.827 0.673 1.5 1.5 1.5h3.5v11.5z"></path>
</symbol>
<symbol id="icon-home" viewBox="0 0 20 20">
<title>home</title>
<path d="M19.871 12.165l-8.829-9.758c-0.274-0.303-0.644-0.47-1.042-0.47 0 0 0 0 0 0-0.397 0-0.767 0.167-1.042 0.47l-8.829 9.758c-0.185 0.205-0.169 0.521 0.035 0.706 0.096 0.087 0.216 0.129 0.335 0.129 0.136 0 0.272-0.055 0.371-0.165l2.129-2.353v8.018c0 0.827 0.673 1.5 1.5 1.5h11c0.827 0 1.5-0.673 1.5-1.5v-8.018l2.129 2.353c0.185 0.205 0.501 0.221 0.706 0.035s0.221-0.501 0.035-0.706zM12 19h-4v-4.5c0-0.276 0.224-0.5 0.5-0.5h3c0.276 0 0.5 0.224 0.5 0.5v4.5zM16 18.5c0 0.276-0.224 0.5-0.5 0.5h-2.5v-4.5c0-0.827-0.673-1.5-1.5-1.5h-3c-0.827 0-1.5 0.673-1.5 1.5v4.5h-2.5c-0.276 0-0.5-0.224-0.5-0.5v-9.123l5.7-6.3c0.082-0.091 0.189-0.141 0.3-0.141s0.218 0.050 0.3 0.141l5.7 6.3v9.123z"></path>
</symbol>
<symbol id="icon-map-marker" viewBox="0 0 20 20">
<title>map-marker</title>
<path d="M10 20c-0.153 0-0.298-0.070-0.393-0.191-0.057-0.073-1.418-1.814-2.797-4.385-0.812-1.513-1.46-2.999-1.925-4.416-0.587-1.787-0.884-3.472-0.884-5.008 0-3.308 2.692-6 6-6s6 2.692 6 6c0 1.536-0.298 3.22-0.884 5.008-0.465 1.417-1.113 2.903-1.925 4.416-1.38 2.571-2.74 4.312-2.797 4.385-0.095 0.121-0.24 0.191-0.393 0.191zM10 1c-2.757 0-5 2.243-5 5 0 3.254 1.463 6.664 2.691 8.951 0.902 1.681 1.809 3.014 2.309 3.71 0.502-0.699 1.415-2.040 2.318-3.726 1.223-2.283 2.682-5.687 2.682-8.935 0-2.757-2.243-5-5-5z"></path>
<path d="M10 9c-1.654 0-3-1.346-3-3s1.346-3 3-3 3 1.346 3 3-1.346 3-3 3zM10 4c-1.103 0-2 0.897-2 2s0.897 2 2 2c1.103 0 2-0.897 2-2s-0.897-2-2-2z"></path>
</symbol>
<symbol id="icon-phone" viewBox="0 0 20 20">
<title>phone</title>
<path d="M10.5 18h-1c-0.276 0-0.5-0.224-0.5-0.5s0.224-0.5 0.5-0.5h1c0.276 0 0.5 0.224 0.5 0.5s-0.224 0.5-0.5 0.5z"></path>
<path d="M14.5 20h-9c-0.827 0-1.5-0.673-1.5-1.5v-17c0-0.827 0.673-1.5 1.5-1.5h9c0.827 0 1.5 0.673 1.5 1.5v17c0 0.827-0.673 1.5-1.5 1.5zM5.5 1c-0.276 0-0.5 0.224-0.5 0.5v17c0 0.276 0.224 0.5 0.5 0.5h9c0.276 0 0.5-0.224 0.5-0.5v-17c0-0.276-0.224-0.5-0.5-0.5h-9z"></path>
<path d="M13.5 16h-7c-0.276 0-0.5-0.224-0.5-0.5v-13c0-0.276 0.224-0.5 0.5-0.5h7c0.276 0 0.5 0.224 0.5 0.5v13c0 0.276-0.224 0.5-0.5 0.5zM7 15h6v-12h-6v12z"></path>
</symbol>
<symbol id="icon-group" viewBox="0 0 20 20">
<title>group</title>
<path d="M18.5 18h-11c-0.827 0-1.5-0.673-1.5-1.5 0-0.048 0.011-1.19 0.924-2.315 0.525-0.646 1.241-1.158 2.128-1.522 1.071-0.44 2.4-0.662 3.948-0.662s2.876 0.223 3.948 0.662c0.887 0.364 1.603 0.876 2.128 1.522 0.914 1.125 0.924 2.267 0.924 2.315 0 0.827-0.673 1.5-1.5 1.5zM7 16.503c0.001 0.275 0.225 0.497 0.5 0.497h11c0.275 0 0.499-0.223 0.5-0.497-0.001-0.035-0.032-0.895-0.739-1.734-0.974-1.157-2.793-1.768-5.261-1.768s-4.287 0.612-5.261 1.768c-0.707 0.84-0.738 1.699-0.739 1.734z"></path>
<path d="M13 11c-2.206 0-4-1.794-4-4s1.794-4 4-4 4 1.794 4 4c0 2.206-1.794 4-4 4zM13 4c-1.654 0-3 1.346-3 3s1.346 3 3 3 3-1.346 3-3-1.346-3-3-3z"></path>
<path d="M4.5 18h-3c-0.827 0-1.5-0.673-1.5-1.5 0-0.037 0.008-0.927 0.663-1.8 0.378-0.505 0.894-0.904 1.533-1.188 0.764-0.34 1.708-0.512 2.805-0.512 0.179 0 0.356 0.005 0.527 0.014 0.276 0.015 0.487 0.25 0.473 0.526s-0.25 0.488-0.526 0.473c-0.153-0.008-0.312-0.012-0.473-0.012-3.894 0-3.997 2.379-4 2.503 0.001 0.274 0.225 0.497 0.5 0.497h3c0.276 0 0.5 0.224 0.5 0.5s-0.224 0.5-0.5 0.5z"></path>
<path d="M5 12c-1.654 0-3-1.346-3-3s1.346-3 3-3 3 1.346 3 3-1.346 3-3 3zM5 7c-1.103 0-2 0.897-2 2s0.897 2 2 2 2-0.897 2-2c0-1.103-0.897-2-2-2z"></path>
</symbol>
</defs>
</svg>
