<svg aria-hidden="true" style="position: absolute; width: 0; height: 0; overflow: hidden;" version="1.1" xmlns="http://www.w3.org/2000/svg" xmlns:xlink="http://www.w3.org/1999/xlink">
<defs>
<symbol id="icon-facebook-filled" viewBox="0 0 32 32">
<title>facebook-filled</title>
<path d="M0 0v32h32v-32h-32zM21.169 8.806h-2.501c-0.495 0-0.995 0.512-0.995 0.893v2.55h3.492c-0.141 1.956-0.429 3.744-0.429 3.744h-3.080v11.083h-4.59v-11.084h-2.234v-3.729h2.234v-3.049c0-0.558-0.113-4.291 4.703-4.291h3.402v3.883z"></path>
</symbol>
<symbol id="icon-instagram-filled" viewBox="0 0 32 32">
<title>instagram-filled</title>
<path d="M21.488 7.335h-10.976c-1.752 0-3.177 1.425-3.177 3.177v10.975c0 1.752 1.425 3.177 3.177 3.177h10.976c1.752 0 3.177-1.425 3.177-3.177v-10.975c0-1.752-1.425-3.177-3.177-3.177zM16 21.705c-3.145 0-5.705-2.559-5.705-5.705s2.559-5.705 5.705-5.705c3.146 0 5.705 2.559 5.705 5.705s-2.559 5.705-5.705 5.705zM21.889 11.475c-0.745 0-1.35-0.606-1.35-1.35s0.606-1.35 1.35-1.35c0.744 0 1.35 0.606 1.35 1.35s-0.606 1.35-1.35 1.35z"></path>
<path d="M16 12.706c-1.816 0-3.294 1.478-3.294 3.294s1.479 3.295 3.294 3.295c1.817 0 3.294-1.478 3.294-3.295s-1.478-3.294-3.294-3.294z"></path>
<path d="M0 0v32h32v-32h-32zM27.076 21.488c0 3.082-2.506 5.588-5.588 5.588h-10.976c-3.081 0-5.588-2.506-5.588-5.588v-10.975c0-3.081 2.507-5.588 5.588-5.588h10.976c3.082 0 5.588 2.507 5.588 5.588v10.975z"></path>
</symbol>
<symbol id="icon-youtube-filled" viewBox="0 0 32 32">
<title>youtube-filled</title>
<path d="M0 0v32h32v-32h-32zM26.69 21.237c-0.272 1.178-1.235 2.048-2.395 2.177-2.746 0.306-5.526 0.308-8.296 0.306-2.768 0.002-5.548 0-8.295-0.306-1.16-0.129-2.124-0.999-2.394-2.177-0.387-1.677-0.387-3.509-0.387-5.237s0.005-3.559 0.391-5.236c0.27-1.179 1.234-2.048 2.393-2.177 2.747-0.307 5.528-0.308 8.297-0.307 2.768-0.001 5.548 0 8.295 0.307 1.16 0.129 2.124 0.998 2.395 2.177 0.386 1.677 0.383 3.509 0.383 5.236s-0.001 3.56-0.387 5.237z"></path>
<path d="M13.141 19.439c2.354-1.221 4.687-2.431 7.043-3.652-2.363-1.233-4.695-2.449-7.043-3.674v7.326z"></path>
</symbol>
<symbol id="icon-facebook" viewBox="0 0 32 32">
<title>facebook</title>
<path d="M13.246 26.392h4.306v-10.398h2.89c0 0 0.271-1.678 0.403-3.512h-3.276v-2.393c0-0.357 0.469-0.838 0.934-0.838h2.346v-3.643h-3.191c-4.518 0-4.412 3.502-4.412 4.025v2.861h-2.096v3.499h2.096v10.399z"></path>
<path d="M0 0v32h32v-32h-32zM30.021 30.021h-28.041v-28.041h28.041v28.041z"></path>
</symbol>
<symbol id="icon-instagram" viewBox="0 0 32 32">
<title>instagram</title>
<path d="M0 0v32h32v-32h-32zM30.021 30.021h-28.041v-28.041h28.041v28.041z"></path>
<path d="M21.148 5.611h-10.297c-2.891 0-5.242 2.351-5.242 5.242v10.297c0 2.891 2.352 5.242 5.242 5.242h10.297c2.891 0 5.242-2.351 5.242-5.242v-10.297c0-2.891-2.351-5.242-5.242-5.242zM24.129 21.15c0 1.644-1.337 2.981-2.981 2.981h-10.297c-1.643 0-2.981-1.337-2.981-2.981v-10.297c0-1.643 1.337-2.981 2.981-2.981h10.297c1.644 0 2.981 1.337 2.981 2.981v10.297z"></path>
<path d="M21.524 11.756c-0.699 0-1.267-0.568-1.267-1.266s0.568-1.266 1.267-1.266c0.698 0 1.266 0.568 1.266 1.266s-0.568 1.266-1.266 1.266v0z"></path>
<path d="M16 10.65c-2.951 0-5.352 2.401-5.352 5.352s2.401 5.352 5.352 5.352c2.951 0 5.352-2.401 5.352-5.352s-2.401-5.352-5.352-5.352zM16 19.093c-1.704 0-3.091-1.387-3.091-3.091s1.387-3.090 3.091-3.090c1.704 0 3.090 1.387 3.090 3.090s-1.386 3.091-3.090 3.091z"></path>
</symbol>
<symbol id="icon-youtube" viewBox="0 0 32 32">
<title>youtube</title>
<path d="M8.217 22.956c2.577 0.287 5.185 0.289 7.782 0.287 2.598 0.002 5.206 0 7.782-0.287 1.088-0.121 1.992-0.938 2.247-2.043 0.362-1.573 0.363-3.292 0.363-4.913s0.003-3.339-0.359-4.912c-0.254-1.106-1.159-1.921-2.247-2.043-2.577-0.288-5.185-0.289-7.782-0.288-2.597-0.001-5.206 0-7.784 0.288-1.087 0.121-1.991 0.936-2.245 2.043-0.362 1.573-0.367 3.292-0.367 4.912s0 3.34 0.363 4.913c0.253 1.105 1.157 1.921 2.246 2.043zM13.318 12.353c2.202 1.149 4.39 2.29 6.607 3.447-2.21 1.146-4.399 2.281-6.607 3.426v-6.873z"></path>
<path d="M0 0v32h32v-32h-32zM30.021 30.021h-28.041v-28.041h28.041v28.041z"></path>
</symbol>
<symbol id="icon-sea-waves" viewBox="0 0 20 20">
<title>sea-waves</title>
<path d="M17.281 5.786c-0.72 0-1.087-0.336-1.411-0.632-0.292-0.268-0.523-0.479-1.016-0.479s-0.724 0.211-1.016 0.479c-0.324 0.296-0.69 0.632-1.411 0.632s-1.087-0.336-1.411-0.632c-0.292-0.268-0.523-0.479-1.016-0.479s-0.724 0.211-1.016 0.479c-0.324 0.296-0.69 0.632-1.411 0.632s-1.087-0.336-1.41-0.632c-0.292-0.268-0.523-0.479-1.016-0.479s-0.724 0.211-1.016 0.479c-0.324 0.296-0.69 0.632-1.411 0.632s-1.087-0.336-1.411-0.632c-0.292-0.268-0.523-0.479-1.016-0.479-0.161 0-0.292-0.131-0.292-0.292s0.131-0.292 0.292-0.292c0.72 0 1.087 0.336 1.411 0.632 0.292 0.268 0.523 0.479 1.016 0.479s0.724-0.211 1.016-0.479c0.324-0.296 0.69-0.632 1.411-0.632s1.087 0.336 1.411 0.632c0.292 0.268 0.523 0.479 1.016 0.479s0.724-0.211 1.016-0.479c0.324-0.296 0.69-0.632 1.411-0.632s1.087 0.336 1.411 0.632c0.292 0.267 0.523 0.479 1.016 0.479s0.724-0.211 1.016-0.479c0.324-0.296 0.69-0.632 1.411-0.632s1.087 0.336 1.411 0.632c0.292 0.267 0.523 0.479 1.016 0.479s0.724-0.211 1.017-0.479c0.324-0.296 0.691-0.632 1.411-0.632 0.161 0 0.292 0.131 0.292 0.292s-0.131 0.292-0.292 0.292c-0.493 0-0.724 0.211-1.017 0.479-0.324 0.296-0.69 0.632-1.411 0.632z"></path>
<path d="M17.281 8.317c-0.72 0-1.087-0.336-1.411-0.632-0.292-0.268-0.523-0.479-1.016-0.479s-0.724 0.211-1.016 0.479c-0.324 0.296-0.69 0.632-1.411 0.632s-1.087-0.336-1.411-0.632c-0.292-0.268-0.523-0.479-1.016-0.479s-0.724 0.211-1.016 0.479c-0.324 0.296-0.69 0.632-1.411 0.632s-1.087-0.336-1.41-0.632c-0.292-0.268-0.523-0.479-1.016-0.479s-0.724 0.211-1.016 0.479c-0.324 0.296-0.69 0.632-1.411 0.632s-1.087-0.336-1.411-0.632c-0.292-0.268-0.523-0.479-1.016-0.479-0.161 0-0.292-0.131-0.292-0.292s0.131-0.292 0.292-0.292c0.72 0 1.087 0.336 1.411 0.632 0.292 0.268 0.523 0.479 1.016 0.479s0.724-0.211 1.016-0.479c0.324-0.296 0.69-0.632 1.411-0.632s1.087 0.336 1.411 0.632c0.292 0.268 0.523 0.479 1.016 0.479s0.724-0.211 1.016-0.479c0.324-0.296 0.69-0.632 1.411-0.632s1.087 0.336 1.411 0.632c0.292 0.267 0.523 0.479 1.016 0.479s0.724-0.211 1.016-0.479c0.324-0.296 0.69-0.632 1.411-0.632s1.087 0.336 1.411 0.632c0.292 0.267 0.523 0.479 1.016 0.479s0.724-0.211 1.017-0.479c0.324-0.296 0.691-0.632 1.411-0.632 0.161 0 0.292 0.131 0.292 0.292s-0.131 0.292-0.292 0.292c-0.493 0-0.724 0.211-1.017 0.479-0.324 0.296-0.69 0.632-1.411 0.632z"></path>
<path d="M17.281 10.847c-0.72 0-1.087-0.336-1.411-0.632-0.292-0.268-0.523-0.479-1.016-0.479s-0.724 0.211-1.016 0.479c-0.324 0.296-0.69 0.632-1.411 0.632s-1.087-0.336-1.411-0.632c-0.292-0.267-0.523-0.479-1.016-0.479s-0.724 0.211-1.016 0.479c-0.324 0.296-0.69 0.632-1.411 0.632s-1.087-0.336-1.41-0.632c-0.292-0.267-0.523-0.479-1.016-0.479s-0.724 0.211-1.016 0.479c-0.324 0.296-0.69 0.632-1.411 0.632s-1.087-0.336-1.411-0.632c-0.292-0.267-0.523-0.479-1.016-0.479-0.161 0-0.292-0.131-0.292-0.292s0.131-0.292 0.292-0.292c0.72 0 1.087 0.336 1.411 0.632 0.292 0.267 0.523 0.479 1.016 0.479s0.724-0.211 1.016-0.479c0.324-0.296 0.69-0.632 1.411-0.632s1.087 0.336 1.411 0.632c0.292 0.267 0.523 0.479 1.016 0.479s0.724-0.211 1.016-0.479c0.324-0.296 0.69-0.632 1.411-0.632s1.087 0.336 1.411 0.632c0.292 0.268 0.523 0.479 1.016 0.479s0.724-0.211 1.016-0.479c0.324-0.296 0.69-0.632 1.411-0.632s1.087 0.336 1.411 0.632c0.292 0.268 0.523 0.479 1.016 0.479s0.724-0.211 1.017-0.479c0.324-0.296 0.691-0.632 1.411-0.632 0.161 0 0.292 0.131 0.292 0.292s-0.131 0.292-0.292 0.292c-0.493 0-0.724 0.211-1.017 0.479-0.324 0.296-0.69 0.632-1.411 0.632z"></path>
<path d="M17.281 13.378c-0.72 0-1.087-0.336-1.411-0.632-0.292-0.268-0.523-0.479-1.016-0.479s-0.724 0.211-1.016 0.479c-0.324 0.296-0.69 0.632-1.411 0.632s-1.087-0.336-1.411-0.632c-0.292-0.267-0.523-0.479-1.016-0.479s-0.724 0.211-1.016 0.479c-0.324 0.296-0.69 0.632-1.411 0.632s-1.087-0.336-1.41-0.632c-0.292-0.267-0.523-0.479-1.016-0.479s-0.724 0.211-1.016 0.479c-0.324 0.296-0.69 0.632-1.411 0.632s-1.087-0.336-1.411-0.632c-0.292-0.267-0.523-0.479-1.016-0.479-0.161 0-0.292-0.131-0.292-0.292s0.131-0.292 0.292-0.292c0.72 0 1.087 0.336 1.411 0.632 0.292 0.268 0.523 0.479 1.016 0.479s0.724-0.211 1.016-0.479c0.324-0.296 0.69-0.632 1.411-0.632s1.087 0.336 1.411 0.632c0.292 0.267 0.523 0.479 1.016 0.479s0.724-0.211 1.016-0.479c0.324-0.296 0.69-0.632 1.411-0.632s1.087 0.336 1.411 0.632c0.292 0.268 0.523 0.479 1.016 0.479s0.724-0.211 1.016-0.479c0.324-0.296 0.69-0.632 1.411-0.632s1.087 0.336 1.411 0.632c0.292 0.268 0.523 0.479 1.016 0.479s0.724-0.211 1.017-0.479c0.324-0.296 0.691-0.632 1.411-0.632 0.161 0 0.292 0.131 0.292 0.292s-0.131 0.292-0.292 0.292c-0.493 0-0.724 0.211-1.017 0.479-0.324 0.296-0.69 0.632-1.411 0.632z"></path>
<path d="M17.281 15.908c-0.72 0-1.087-0.336-1.411-0.632-0.292-0.268-0.523-0.479-1.016-0.479s-0.724 0.211-1.016 0.479c-0.324 0.296-0.69 0.632-1.411 0.632s-1.087-0.336-1.411-0.632c-0.292-0.267-0.523-0.479-1.016-0.479s-0.724 0.211-1.016 0.479c-0.324 0.296-0.69 0.632-1.411 0.632s-1.087-0.336-1.41-0.632c-0.292-0.267-0.523-0.479-1.016-0.479s-0.724 0.211-1.016 0.479c-0.324 0.296-0.69 0.632-1.411 0.632s-1.087-0.336-1.411-0.632c-0.292-0.267-0.523-0.479-1.016-0.479-0.161 0-0.292-0.131-0.292-0.292s0.131-0.292 0.292-0.292c0.72 0 1.087 0.336 1.411 0.632 0.292 0.268 0.523 0.479 1.016 0.479s0.724-0.211 1.016-0.479c0.324-0.296 0.69-0.632 1.411-0.632s1.087 0.336 1.411 0.632c0.292 0.267 0.523 0.479 1.016 0.479s0.724-0.211 1.016-0.479c0.324-0.296 0.69-0.632 1.411-0.632s1.087 0.336 1.411 0.632c0.292 0.268 0.523 0.479 1.016 0.479s0.724-0.211 1.016-0.479c0.324-0.296 0.69-0.632 1.411-0.632s1.087 0.336 1.411 0.632c0.292 0.268 0.523 0.479 1.016 0.479s0.724-0.211 1.017-0.479c0.324-0.296 0.691-0.632 1.411-0.632 0.161 0 0.292 0.131 0.292 0.292s-0.131 0.292-0.292 0.292c-0.493 0-0.724 0.211-1.017 0.479-0.324 0.296-0.69 0.632-1.411 0.632z"></path>
</symbol>
<symbol id="icon-arrow-down" viewBox="0 0 20 20">
<title>arrow-down</title>
<path d="M9.854 19.354l6-6c0.195-0.195 0.195-0.512 0-0.707s-0.512-0.195-0.707 0l-5.146 5.146v-16.293c0-0.276-0.224-0.5-0.5-0.5s-0.5 0.224-0.5 0.5v16.293l-5.146-5.146c-0.195-0.195-0.512-0.195-0.707 0-0.098 0.098-0.146 0.226-0.146 0.354s0.049 0.256 0.146 0.354l6 6c0.195 0.195 0.512 0.195 0.707 0z"></path>
</symbol>
<symbol id="icon-book" viewBox="0 0 20 20">
<title>book</title>
<path d="M14.5 18h-10c-0.276 0-0.5-0.224-0.5-0.5s0.224-0.5 0.5-0.5h10c0.276 0 0.5 0.224 0.5 0.5s-0.224 0.5-0.5 0.5z"></path>
<path d="M16.5 3c-0.276 0-0.5 0.224-0.5 0.5v15c0 0.276-0.224 0.5-0.5 0.5h-11c-0.827 0-1.5-0.673-1.5-1.5s0.673-1.5 1.5-1.5h9c0.827 0 1.5-0.673 1.5-1.5v-12c0-0.827-0.673-1.5-1.5-1.5h-10c-0.827 0-1.5 0.673-1.5 1.5v15c0 1.378 1.122 2.5 2.5 2.5h11c0.827 0 1.5-0.673 1.5-1.5v-15c0-0.276-0.224-0.5-0.5-0.5zM3.5 2h10c0.276 0 0.5 0.224 0.5 0.5v12c0 0.276-0.224 0.5-0.5 0.5h-9c-0.562 0-1.082 0.187-1.5 0.501v-13.001c0-0.276 0.224-0.5 0.5-0.5z"></path>
</symbol>
<symbol id="icon-calendar" viewBox="0 0 20 20">
<title>calendar</title>
<path d="M18.5 2h-2.5v-0.5c0-0.276-0.224-0.5-0.5-0.5s-0.5 0.224-0.5 0.5v0.5h-10v-0.5c0-0.276-0.224-0.5-0.5-0.5s-0.5 0.224-0.5 0.5v0.5h-2.5c-0.827 0-1.5 0.673-1.5 1.5v14c0 0.827 0.673 1.5 1.5 1.5h17c0.827 0 1.5-0.673 1.5-1.5v-14c0-0.827-0.673-1.5-1.5-1.5zM1.5 3h2.5v1.5c0 0.276 0.224 0.5 0.5 0.5s0.5-0.224 0.5-0.5v-1.5h10v1.5c0 0.276 0.224 0.5 0.5 0.5s0.5-0.224 0.5-0.5v-1.5h2.5c0.276 0 0.5 0.224 0.5 0.5v2.5h-18v-2.5c0-0.276 0.224-0.5 0.5-0.5zM18.5 18h-17c-0.276 0-0.5-0.224-0.5-0.5v-10.5h18v10.5c0 0.276-0.224 0.5-0.5 0.5z"></path>
<path d="M7.5 10h-1c-0.276 0-0.5-0.224-0.5-0.5s0.224-0.5 0.5-0.5h1c0.276 0 0.5 0.224 0.5 0.5s-0.224 0.5-0.5 0.5z"></path>
<path d="M10.5 10h-1c-0.276 0-0.5-0.224-0.5-0.5s0.224-0.5 0.5-0.5h1c0.276 0 0.5 0.224 0.5 0.5s-0.224 0.5-0.5 0.5z"></path>
<path d="M13.5 10h-1c-0.276 0-0.5-0.224-0.5-0.5s0.224-0.5 0.5-0.5h1c0.276 0 0.5 0.224 0.5 0.5s-0.224 0.5-0.5 0.5z"></path>
<path d="M16.5 10h-1c-0.276 0-0.5-0.224-0.5-0.5s0.224-0.5 0.5-0.5h1c0.276 0 0.5 0.224 0.5 0.5s-0.224 0.5-0.5 0.5z"></path>
<path d="M4.5 12h-1c-0.276 0-0.5-0.224-0.5-0.5s0.224-0.5 0.5-0.5h1c0.276 0 0.5 0.224 0.5 0.5s-0.224 0.5-0.5 0.5z"></path>
<path d="M7.5 12h-1c-0.276 0-0.5-0.224-0.5-0.5s0.224-0.5 0.5-0.5h1c0.276 0 0.5 0.224 0.5 0.5s-0.224 0.5-0.5 0.5z"></path>
<path d="M10.5 12h-1c-0.276 0-0.5-0.224-0.5-0.5s0.224-0.5 0.5-0.5h1c0.276 0 0.5 0.224 0.5 0.5s-0.224 0.5-0.5 0.5z"></path>
<path d="M13.5 12h-1c-0.276 0-0.5-0.224-0.5-0.5s0.224-0.5 0.5-0.5h1c0.276 0 0.5 0.224 0.5 0.5s-0.224 0.5-0.5 0.5z"></path>
<path d="M16.5 12h-1c-0.276 0-0.5-0.224-0.5-0.5s0.224-0.5 0.5-0.5h1c0.276 0 0.5 0.224 0.5 0.5s-0.224 0.5-0.5 0.5z"></path>
<path d="M4.5 14h-1c-0.276 0-0.5-0.224-0.5-0.5s0.224-0.5 0.5-0.5h1c0.276 0 0.5 0.224 0.5 0.5s-0.224 0.5-0.5 0.5z"></path>
<path d="M7.5 14h-1c-0.276 0-0.5-0.224-0.5-0.5s0.224-0.5 0.5-0.5h1c0.276 0 0.5 0.224 0.5 0.5s-0.224 0.5-0.5 0.5z"></path>
<path d="M10.5 14h-1c-0.276 0-0.5-0.224-0.5-0.5s0.224-0.5 0.5-0.5h1c0.276 0 0.5 0.224 0.5 0.5s-0.224 0.5-0.5 0.5z"></path>
<path d="M13.5 14h-1c-0.276 0-0.5-0.224-0.5-0.5s0.224-0.5 0.5-0.5h1c0.276 0 0.5 0.224 0.5 0.5s-0.224 0.5-0.5 0.5z"></path>
<path d="M16.5 14h-1c-0.276 0-0.5-0.224-0.5-0.5s0.224-0.5 0.5-0.5h1c0.276 0 0.5 0.224 0.5 0.5s-0.224 0.5-0.5 0.5z"></path>
<path d="M4.5 16h-1c-0.276 0-0.5-0.224-0.5-0.5s0.224-0.5 0.5-0.5h1c0.276 0 0.5 0.224 0.5 0.5s-0.224 0.5-0.5 0.5z"></path>
<path d="M7.5 16h-1c-0.276 0-0.5-0.224-0.5-0.5s0.224-0.5 0.5-0.5h1c0.276 0 0.5 0.224 0.5 0.5s-0.224 0.5-0.5 0.5z"></path>
<path d="M10.5 16h-1c-0.276 0-0.5-0.224-0.5-0.5s0.224-0.5 0.5-0.5h1c0.276 0 0.5 0.224 0.5 0.5s-0.224 0.5-0.5 0.5z"></path>
<path d="M13.5 16h-1c-0.276 0-0.5-0.224-0.5-0.5s0.224-0.5 0.5-0.5h1c0.276 0 0.5 0.224 0.5 0.5s-0.224 0.5-0.5 0.5z"></path>
<path d="M16.5 16h-1c-0.276 0-0.5-0.224-0.5-0.5s0.224-0.5 0.5-0.5h1c0.276 0 0.5 0.224 0.5 0.5s-0.224 0.5-0.5 0.5z"></path>
</symbol>
<symbol id="icon-mail" viewBox="0 0 20 20">
<title>mail</title>
<path d="M17.5 6h-16c-0.827 0-1.5 0.673-1.5 1.5v9c0 0.827 0.673 1.5 1.5 1.5h16c0.827 0 1.5-0.673 1.5-1.5v-9c0-0.827-0.673-1.5-1.5-1.5zM17.5 7c0.030 0 0.058 0.003 0.087 0.008l-7.532 5.021c-0.29 0.193-0.819 0.193-1.109 0l-7.532-5.021c0.028-0.005 0.057-0.008 0.087-0.008h16zM17.5 17h-16c-0.276 0-0.5-0.224-0.5-0.5v-8.566l7.391 4.927c0.311 0.207 0.71 0.311 1.109 0.311s0.798-0.104 1.109-0.311l7.391-4.927v8.566c0 0.276-0.224 0.5-0.5 0.5z"></path>
</symbol>
<symbol id="icon-home" viewBox="0 0 20 20">
<title>home</title>
<path d="M19.871 12.165l-8.829-9.758c-0.274-0.303-0.644-0.47-1.042-0.47 0 0 0 0 0 0-0.397 0-0.767 0.167-1.042 0.47l-8.829 9.758c-0.185 0.205-0.169 0.521 0.035 0.706 0.096 0.087 0.216 0.129 0.335 0.129 0.136 0 0.272-0.055 0.371-0.165l2.129-2.353v8.018c0 0.827 0.673 1.5 1.5 1.5h11c0.827 0 1.5-0.673 1.5-1.5v-8.018l2.129 2.353c0.185 0.205 0.501 0.221 0.706 0.035s0.221-0.501 0.035-0.706zM12 19h-4v-4.5c0-0.276 0.224-0.5 0.5-0.5h3c0.276 0 0.5 0.224 0.5 0.5v4.5zM16 18.5c0 0.276-0.224 0.5-0.5 0.5h-2.5v-4.5c0-0.827-0.673-1.5-1.5-1.5h-3c-0.827 0-1.5 0.673-1.5 1.5v4.5h-2.5c-0.276 0-0.5-0.224-0.5-0.5v-9.123l5.7-6.3c0.082-0.091 0.189-0.141 0.3-0.141s0.218 0.050 0.3 0.141l5.7 6.3v9.123z"></path>
</symbol>
<symbol id="icon-map-marker" viewBox="0 0 20 20">
<title>map-marker</title>
<path d="M10 20c-0.153 0-0.298-0.070-0.393-0.191-0.057-0.073-1.418-1.814-2.797-4.385-0.812-1.513-1.46-2.999-1.925-4.416-0.587-1.787-0.884-3.472-0.884-5.008 0-3.308 2.692-6 6-6s6 2.692 6 6c0 1.536-0.298 3.22-0.884 5.008-0.465 1.417-1.113 2.903-1.925 4.416-1.38 2.571-2.74 4.312-2.797 4.385-0.095 0.121-0.24 0.191-0.393 0.191zM10 1c-2.757 0-5 2.243-5 5 0 3.254 1.463 6.664 2.691 8.951 0.902 1.681 1.809 3.014 2.309 3.71 0.502-0.699 1.415-2.040 2.318-3.726 1.223-2.283 2.682-5.687 2.682-8.935 0-2.757-2.243-5-5-5z"></path>
<path d="M10 9c-1.654 0-3-1.346-3-3s1.346-3 3-3 3 1.346 3 3-1.346 3-3 3zM10 4c-1.103 0-2 0.897-2 2s0.897 2 2 2c1.103 0 2-0.897 2-2s-0.897-2-2-2z"></path>
</symbol>
<symbol id="icon-phone" viewBox="0 0 20 20">
<title>phone</title>
<path d="M10.5 18h-1c-0.276 0-0.5-0.224-0.5-0.5s0.224-0.5 0.5-0.5h1c0.276 0 0.5 0.224 0.5 0.5s-0.224 0.5-0.5 0.5z"></path>
<path d="M14.5 20h-9c-0.827 0-1.5-0.673-1.5-1.5v-17c0-0.827 0.673-1.5 1.5-1.5h9c0.827 0 1.5 0.673 1.5 1.5v17c0 0.827-0.673 1.5-1.5 1.5zM5.5 1c-0.276 0-0.5 0.224-0.5 0.5v17c0 0.276 0.224 0.5 0.5 0.5h9c0.276 0 0.5-0.224 0.5-0.5v-17c0-0.276-0.224-0.5-0.5-0.5h-9z"></path>
<path d="M13.5 16h-7c-0.276 0-0.5-0.224-0.5-0.5v-13c0-0.276 0.224-0.5 0.5-0.5h7c0.276 0 0.5 0.224 0.5 0.5v13c0 0.276-0.224 0.5-0.5 0.5zM7 15h6v-12h-6v12z"></path>
</symbol>
<symbol id="icon-group" viewBox="0 0 20 20">
<title>group</title>
<path d="M18.5 18h-11c-0.827 0-1.5-0.673-1.5-1.5 0-0.048 0.011-1.19 0.924-2.315 0.525-0.646 1.241-1.158 2.128-1.522 1.071-0.44 2.4-0.662 3.948-0.662s2.876 0.223 3.948 0.662c0.887 0.364 1.603 0.876 2.128 1.522 0.914 1.125 0.924 2.267 0.924 2.315 0 0.827-0.673 1.5-1.5 1.5zM7 16.503c0.001 0.275 0.225 0.497 0.5 0.497h11c0.275 0 0.499-0.223 0.5-0.497-0.001-0.035-0.032-0.895-0.739-1.734-0.974-1.157-2.793-1.768-5.261-1.768s-4.287 0.612-5.261 1.768c-0.707 0.84-0.738 1.699-0.739 1.734z"></path>
<path d="M13 11c-2.206 0-4-1.794-4-4s1.794-4 4-4 4 1.794 4 4c0 2.206-1.794 4-4 4zM13 4c-1.654 0-3 1.346-3 3s1.346 3 3 3 3-1.346 3-3-1.346-3-3-3z"></path>
<path d="M4.5 18h-3c-0.827 0-1.5-0.673-1.5-1.5 0-0.037 0.008-0.927 0.663-1.8 0.378-0.505 0.894-0.904 1.533-1.188 0.764-0.34 1.708-0.512 2.805-0.512 0.179 0 0.356 0.005 0.527 0.014 0.276 0.015 0.487 0.25 0.473 0.526s-0.25 0.488-0.526 0.473c-0.153-0.008-0.312-0.012-0.473-0.012-3.894 0-3.997 2.379-4 2.503 0.001 0.274 0.225 0.497 0.5 0.497h3c0.276 0 0.5 0.224 0.5 0.5s-0.224 0.5-0.5 0.5z"></path>
<path d="M5 12c-1.654 0-3-1.346-3-3s1.346-3 3-3 3 1.346 3 3-1.346 3-3 3zM5 7c-1.103 0-2 0.897-2 2s0.897 2 2 2 2-0.897 2-2c0-1.103-0.897-2-2-2z"></path>
</symbol>
</defs>
</svg>
